<svg width="500" height="342" viewBox="0 0 500 342" fill="none" xmlns="http://www.w3.org/2000/svg">
<path d="M62.9307 330.279C67.8369 337.583 74.7274 341.727 81.9382 341.716L183.921 341.524C191.969 341.509 199.901 338.904 207.076 333.92L434.385 176.244C455.275 161.753 474.001 141.067 486.743 113.974C501.047 83.5606 502.602 61.5511 496.954 46.0024C491.321 30.443 477.626 19.0164 451.447 16.6884C428.127 14.6166 404.932 23.0104 384.042 37.4912L307.082 90.8757L136.226 3.24345C134.172 1.35174 131.785 0.244441 129.313 0.0360434C126.841 -0.172354 124.373 0.525715 122.164 2.05807L70.7977 37.6941C62.462 43.4714 60.4464 58.6784 66.7588 68.1614L188.803 172.923L108.172 228.86L51.6497 189.913C49.7023 188.571 47.5514 187.874 45.3706 187.878C43.1898 187.881 41.0401 188.586 39.0952 189.935L7.74426 211.688C-0.411833 217.348 -2.56023 232.106 3.39278 241.675L62.9307 330.279Z" fill="#41A4FF"/>
</svg>
